<svg width="14" height="14" viewBox="0 0 14 14" fill="none" xmlns="http://www.w3.org/2000/svg">
<path d="M13.4282 6.32116H2.97999L9.23356 0.892586C9.33356 0.805086 9.27285 0.642586 9.1407 0.642586H7.56035C7.4907 0.642586 7.42463 0.667586 7.37285 0.712229L0.624633 6.56759C0.562827 6.62116 0.513259 6.68739 0.479288 6.7618C0.445316 6.8362 0.427734 6.91704 0.427734 6.99884C0.427734 7.08063 0.445316 7.16147 0.479288 7.23587C0.513259 7.31028 0.562827 7.37651 0.624633 7.43009L7.41213 13.3212C7.43892 13.3444 7.47106 13.3569 7.50499 13.3569H9.13892C9.27106 13.3569 9.33178 13.1926 9.23178 13.1069L2.97999 7.6783H13.4282C13.5068 7.6783 13.5711 7.61401 13.5711 7.53544V6.46401C13.5711 6.38544 13.5068 6.32116 13.4282 6.32116Z" fill="current"/>
</svg>
