<svg width="24" height="30" viewBox="0 0 24 30" fill="none" xmlns="http://www.w3.org/2000/svg">
<path fill-rule="evenodd" clip-rule="evenodd" d="M11.3432 28.9715C11.936 28.9715 22.5279 17.6546 22.5279 11.4774C22.5279 5.30033 17.5203 0.292786 11.3432 0.292786C5.1661 0.292786 0.158569 5.30033 0.158569 11.4774C0.158569 17.6546 10.7505 28.9715 11.3432 28.9715ZM11.3432 17.0716C14.475 17.0716 17.0139 14.5328 17.0139 11.401C17.0139 8.26916 14.475 5.73033 11.3432 5.73033C8.21145 5.73033 5.67263 8.26916 5.67263 11.401C5.67263 14.5328 8.21145 17.0716 11.3432 17.0716Z" fill="#E8C40C"/>
<path fill-rule="evenodd" clip-rule="evenodd" d="M0.158569 11.4774C0.158569 17.6546 10.7505 28.9715 11.3432 28.9715V17.0716C8.21144 17.0715 5.67263 14.5328 5.67263 11.401C5.67263 8.26917 8.21144 5.73035 11.3432 5.73033V0.292786C5.16611 0.292786 0.158569 5.30033 0.158569 11.4774Z" fill="#FFDC29"/>
</svg>
